<svg width="152" height="209" xmlns="http://www.w3.org/2000/svg"><g fill="none" fill-rule="evenodd"><path d="M5.789 38.575l44.098 1.46a4.896 4.896 0 0 1 4.435 5.181l-.255 36.456-53.892-7.97.277-30.562a4.896 4.896 0 0 1 5.337-4.565M151.656 43.14l.278 30.56-53.893 7.971-.255-36.453a4.895 4.895 0 0 1 4.435-5.182l44.098-1.461a4.897 4.897 0 0 1 5.337 4.564" fill="#C5BCBC"/><path d="M98.042 90.224v42.631c0 12.146-9.844 21.99-21.989 21.99-12.142 0-21.986-9.844-21.986-21.99V90.224L.174 82.254v50.601c0 41.91 33.972 75.884 75.88 75.884 41.909 0 75.88-33.974 75.88-75.884V82.254l-53.892 7.97zM86.006 15.246a1.634 1.634 0 0 0-1.471-.937h-5.54V2.206c0-.959-.68-1.709-1.544-1.709-.497 0-.961.253-1.274.695l-9.931 18.561a1.738 1.738 0 0 0-.143 1.782c.28.58.847.937 1.472.937h5.539v12.105c0 .957.677 1.706 1.544 1.706.495 0 .96-.252 1.272-.692l9.931-18.564c.375-.52.428-1.204.145-1.781" fill="#ED3534"/></g></svg>
