<?xml version="1.0" standalone="no"?>
<!DOCTYPE svg PUBLIC "-//W3C//DTD SVG 20010904//EN"
 "http://www.w3.org/TR/2001/REC-SVG-20010904/DTD/svg10.dtd">
<svg version="1.0" xmlns="http://www.w3.org/2000/svg"
 width="460.000000pt" height="460.000000pt" viewBox="0 0 460.000000 460.000000"
 preserveAspectRatio="xMidYMid meet">
<metadata>
Created by potrace 1.14, written by Peter Selinger 2001-2017
</metadata>
<g transform="translate(0.000000,460.000000) scale(0.100000,-0.100000)"
fill="#000000" stroke="none">
<path d="M0 3660 c0 -937 0 -940 20 -940 26 0 26 -26 0 -42 -20 -13 -20 -24
-20 -1345 l0 -1333 50 0 50 0 0 35 c0 38 -12 64 -47 104 -28 32 -28 34 0 47
19 8 26 5 49 -20 l27 -29 31 67 c16 38 30 71 30 74 0 6 50 111 117 247 19 39
44 93 54 121 11 28 32 63 49 79 16 15 27 31 25 35 -3 4 15 15 39 24 25 10 65
32 89 51 24 19 62 44 83 56 98 55 123 71 138 93 11 17 29 26 63 31 26 4 72 18
101 31 29 13 54 24 57 24 5 0 185 84 280 131 44 22 84 39 89 39 4 0 40 20 80
44 39 23 106 56 150 72 54 20 81 35 86 50 7 18 29 34 46 34 2 0 -3 -11 -12
-25 -11 -16 -14 -34 -9 -52 l6 -27 12 24 c11 23 89 75 147 100 14 6 41 19 60
29 32 18 37 18 55 4 11 -8 35 -22 53 -29 18 -8 30 -19 27 -24 -3 -6 -2 -10 4
-10 6 0 8 -6 6 -12 -5 -14 98 -92 136 -102 22 -6 22 -6 4 5 -19 12 -19 12 0
20 17 6 16 8 -7 8 -31 1 -78 20 -78 33 0 4 5 8 10 8 6 0 10 -4 10 -9 0 -5 9
-7 21 -4 16 5 18 8 7 15 -9 7 -8 8 5 4 10 -3 22 -6 25 -6 4 -1 -4 -8 -18 -16
-20 -12 -21 -14 -5 -11 11 3 29 8 39 13 13 5 17 4 13 -3 -5 -7 8 -14 34 -18
32 -6 45 -3 58 10 15 15 15 16 -1 13 -21 -4 -21 3 -4 44 8 18 18 44 23 58 9
23 10 23 10 -8 0 -18 -4 -32 -9 -32 -4 0 -8 -9 -8 -20 0 -11 -5 -20 -12 -20
-6 0 -3 -6 8 -14 10 -8 19 -20 19 -27 0 -7 6 -14 13 -17 9 -3 11 4 8 22 -3 14
-1 28 4 31 5 3 8 28 6 55 -3 61 7 82 24 50 8 -15 8 -20 1 -16 -15 10 -14 -39
1 -64 10 -16 10 -24 0 -38 -7 -9 -15 -25 -18 -34 -8 -22 -22 -23 -44 -3 -15
14 -19 14 -31 -2 -8 -9 -9 -14 -2 -10 6 4 22 2 35 -4 17 -7 35 -7 59 -1 27 8
29 10 10 11 -24 1 -24 1 -5 18 14 13 18 29 16 57 -2 21 1 43 7 49 8 8 11 4 11
-12 0 -14 4 -20 11 -15 6 3 15 0 20 -7 7 -12 9 -11 9 1 0 13 1 13 10 0 9 -13
10 -13 10 0 1 9 6 6 16 -10 10 -17 13 -18 8 -5 -3 11 -9 30 -11 42 -3 13 -9
20 -14 17 -5 -3 -6 2 -3 10 3 9 11 13 18 9 8 -4 7 -2 -1 7 -15 16 -47 5 -39
-15 3 -8 1 -17 -4 -20 -6 -4 -10 1 -10 9 0 10 -6 13 -15 10 -21 -8 -20 29 1
61 21 32 38 32 30 2 -4 -17 -1 -24 9 -24 9 0 15 10 15 26 0 24 1 24 15 5 8
-10 14 -23 15 -29 0 -5 -5 -3 -10 5 -5 8 -10 10 -10 4 0 -16 10 -23 26 -17 9
3 12 13 8 29 -5 19 -3 23 9 18 8 -3 17 -18 19 -34 3 -22 1 -27 -11 -22 -10 4
-13 1 -8 -12 5 -11 3 -15 -5 -10 -8 5 -9 2 -4 -11 6 -16 4 -16 -11 -4 -11 9
-14 10 -9 2 4 -7 9 -23 11 -35 3 -12 9 -26 15 -32 8 -8 9 -6 4 8 -6 15 -4 17
6 11 9 -5 11 -4 6 4 -10 15 3 53 15 45 5 -3 17 -22 26 -42 l16 -37 9 37 c8 31
7 42 -10 65 -16 23 -18 36 -12 68 6 31 8 34 10 15 5 -43 5 -45 12 -55 3 -5 9
-25 13 -43 6 -30 8 -32 20 -15 14 19 10 37 -6 28 -5 -4 -9 -1 -9 4 0 6 4 11 9
11 5 0 14 12 19 28 l10 27 7 -27 c4 -15 13 -32 21 -39 19 -15 17 -2 -5 41 -17
34 -17 37 2 90 11 30 24 60 29 67 5 7 6 18 2 24 -4 8 -3 9 4 5 7 -4 12 -15 13
-24 0 -14 2 -13 8 3 5 11 4 23 -1 26 -5 3 2 13 16 23 25 16 26 16 27 -6 1 -17
2 -19 6 -5 2 9 9 17 15 17 5 0 8 6 5 14 -6 15 29 63 39 53 3 -3 -2 -16 -10
-29 -9 -14 -13 -28 -9 -32 4 -4 2 -10 -5 -15 -6 -4 -14 -32 -16 -62 -3 -35 -2
-47 4 -34 5 11 9 32 9 47 1 15 6 30 13 34 7 5 9 2 5 -8 -3 -9 0 -21 6 -27 8
-8 8 -14 2 -19 -6 -4 -8 -23 -5 -42 5 -33 6 -32 14 20 4 34 15 64 28 78 27 28
34 28 42 -3 4 -14 11 -25 17 -25 6 0 8 9 4 21 -5 15 -4 19 4 15 6 -4 11 -2 11
5 0 8 4 8 15 -1 11 -9 13 -16 5 -24 -5 -5 -10 -18 -10 -28 0 -15 3 -16 13 -7
7 7 13 24 12 38 0 18 5 26 17 26 9 0 20 3 23 7 4 4 13 4 21 1 8 -3 14 0 14 6
0 6 -5 11 -11 11 -5 0 -7 5 -4 10 4 6 10 8 15 5 4 -3 6 4 3 15 -3 11 0 20 6
20 6 0 11 12 10 28 0 15 -3 21 -6 15 -5 -13 -42 -59 -75 -94 -20 -21 -38 -25
-38 -9 0 6 5 10 11 10 5 0 7 5 4 11 -4 6 2 13 14 16 12 3 21 9 21 14 0 15 -27
10 -45 -7 -9 -9 -19 -13 -23 -9 -4 4 -2 10 3 12 70 29 80 38 77 73 -1 24 1 30
7 21 7 -11 12 -7 25 15 l17 29 -6 -35 c-2 -19 -2 -28 2 -20 3 8 9 17 14 20 4
3 10 19 14 35 5 22 4 26 -4 15 -16 -23 -26 -2 -25 56 0 30 -4 54 -8 54 -4 0
-8 -10 -9 -22 0 -22 -1 -22 -10 2 -7 17 -7 32 0 48 14 29 14 42 1 42 -5 0 -10
-9 -10 -20 0 -11 -4 -20 -10 -20 -5 0 -11 -12 -11 -27 -1 -17 -3 -21 -6 -10
-2 9 -8 17 -12 17 -5 0 -7 12 -4 27 3 24 2 25 -6 8 -8 -17 -10 -17 -10 -3 -1
10 -7 15 -15 12 -15 -6 -31 29 -42 89 -6 35 -7 36 -21 20 -13 -16 -14 -15 -9
19 3 25 0 41 -10 49 -8 6 -14 21 -14 32 0 18 2 18 25 -7 l25 -27 -1 58 c-1 63
-15 133 -19 98 -1 -11 -2 -24 -1 -28 1 -4 -6 -18 -14 -30 l-15 -22 -6 23 c-4
12 -13 22 -20 22 -19 0 -18 -26 1 -34 8 -3 15 -11 15 -18 0 -9 -3 -8 -10 2 -8
13 -10 13 -10 1 0 -11 -4 -10 -14 4 -12 17 -14 13 -20 -39 -4 -32 -5 -60 -2
-64 3 -3 6 8 6 25 0 22 6 32 20 36 17 4 20 0 20 -25 0 -23 4 -29 15 -24 18 7
19 11 -5 -52 -11 -29 -20 -61 -20 -72 0 -18 -3 -19 -20 -8 -20 13 -19 49 1 56
18 7 8 24 -11 19 -16 -4 -20 0 -21 21 l-2 27 -4 -25 c-3 -14 -10 -28 -17 -32
-8 -6 -7 -8 3 -8 9 0 12 -9 8 -27 -7 -38 -30 -96 -42 -106 -6 -6 -6 -10 3 -14
17 -7 15 -24 -9 -53 l-20 -25 5 40 c3 22 3 34 0 27 -3 -6 -9 -10 -14 -7 -5 3
-11 -4 -15 -15 -9 -27 -25 -25 -25 3 0 17 -2 19 -9 7 -6 -8 -7 -19 -3 -25 4
-5 5 -18 4 -28 -4 -19 14 -23 22 -4 3 6 2 -1 -1 -18 -3 -16 -11 -33 -17 -37
-16 -11 -20 0 -6 17 8 10 9 15 1 15 -17 0 -26 -4 -24 -11 4 -12 -36 -41 -46
-34 -14 8 -14 65 -1 65 6 0 10 5 10 10 0 6 -3 10 -7 10 -23 -1 -33 -22 -37
-74 -5 -64 -12 -78 -26 -56 -7 11 -10 2 -11 -30 -1 -40 -2 -42 -8 -15 -4 17
-12 29 -19 28 -7 -2 -12 6 -12 17 0 11 5 20 10 20 6 0 10 7 10 15 0 8 7 15 15
15 8 0 15 9 15 21 0 11 4 18 9 15 5 -4 7 3 4 14 -4 16 -8 18 -19 9 -8 -6 -14
-18 -14 -25 0 -7 -6 -11 -14 -8 -10 4 -12 -2 -8 -22 3 -19 1 -25 -7 -20 -7 4
-11 0 -11 -11 0 -10 -5 -25 -10 -33 -9 -13 -11 -13 -20 0 -8 11 -9 7 -4 -15 7
-27 6 -29 -9 -17 -9 8 -18 28 -20 45 -3 20 -4 16 -3 -12 1 -30 -4 -46 -13 -49
-11 -4 -13 4 -8 37 5 38 4 40 -9 24 -13 -17 -13 -17 -14 0 0 10 7 20 15 23 9
4 15 17 14 33 -1 17 -3 20 -6 9 -2 -10 -9 -18 -13 -18 -5 0 -14 -15 -19 -32
-10 -33 -10 -33 -8 10 1 23 -1 42 -5 42 -5 0 -8 -7 -8 -16 0 -8 -4 -12 -10 -9
-5 3 -10 -3 -10 -14 0 -26 -17 -36 -24 -14 -3 12 -5 10 -4 -7 0 -14 0 -30 -1
-37 -1 -17 -31 -4 -31 14 0 8 4 12 9 9 5 -4 4 5 -2 19 l-12 25 -3 -27 c-2 -15
-12 -38 -22 -51 -18 -23 -19 -23 -30 -3 -6 11 -10 43 -9 71 1 27 0 52 -3 55
-3 3 -13 -13 -24 -35 -10 -22 -25 -40 -33 -40 -8 0 -11 -6 -7 -16 4 -12 2 -15
-9 -10 -10 4 -15 -1 -16 -17 0 -20 -1 -21 -8 -3 -5 14 -10 16 -15 7 -6 -9 -11
-8 -22 6 -7 10 -14 14 -14 8 0 -5 -5 -3 -10 5 -9 13 -12 13 -24 -2 -7 -10 -18
-18 -25 -18 -13 0 -14 -20 -1 -40 8 -12 10 -10 10 8 0 13 4 20 10 17 6 -3 10
1 10 10 0 9 5 13 10 10 6 -3 10 -13 10 -22 0 -9 7 -25 17 -35 9 -11 11 -18 5
-18 -7 0 -12 5 -12 11 0 5 -5 7 -10 4 -5 -3 -10 -1 -10 6 0 8 -7 6 -19 -5 -12
-11 -21 -14 -26 -7 -8 15 -34 -10 -28 -27 3 -7 0 -19 -7 -27 -11 -13 -15 -13
-30 5 -15 18 -19 18 -24 5 -3 -9 -2 -14 3 -11 5 4 7 -3 4 -15 -5 -19 -7 -19
-15 -5 -13 23 -27 11 -21 -17 3 -16 2 -18 -5 -8 -12 16 -27 -3 -16 -21 5 -7 3
-8 -6 -3 -9 6 -12 4 -8 -6 3 -8 0 -20 -7 -26 -18 -16 -30 14 -14 34 7 7 9 16
7 19 -3 3 -14 -6 -24 -19 -21 -25 -54 -42 -54 -27 0 5 -7 6 -17 3 -12 -5 -14
-3 -8 7 5 8 4 11 -2 7 -6 -4 -8 -18 -5 -32 2 -15 0 -25 -7 -25 -6 0 -11 9 -11
20 0 22 -12 25 -41 10 -15 -8 -19 -7 -19 5 0 8 6 15 13 15 7 0 5 5 -5 11 -21
12 -29 49 -32 164 -2 77 -7 101 -35 165 -41 93 -67 254 -70 428 -1 67 -5 130
-8 138 -7 18 9 77 39 145 12 27 17 53 13 60 -5 8 -5 11 0 7 4 -4 14 -3 22 3
16 14 18 33 1 23 -8 -5 -9 -2 -5 10 4 10 7 24 7 32 0 7 13 20 30 29 33 17 74
20 65 5 -3 -5 -2 -10 3 -10 5 0 12 9 15 20 4 17 0 20 -31 21 -29 0 -33 2 -17
8 l20 8 -20 5 c-16 5 -17 6 -2 7 9 0 17 6 17 12 0 5 6 7 13 4 6 -4 1 2 -12 13
l-25 20 24 4 24 3 -33 38 c-18 20 -40 37 -50 37 -30 1 -49 25 -51 65 -3 66 -1
87 10 80 6 -3 10 4 10 17 1 21 2 21 11 5 6 -9 14 -15 18 -13 7 5 181 -60 209
-78 10 -6 9 -11 -5 -22 -12 -9 -13 -13 -5 -14 7 0 11 -4 8 -9 -3 -5 1 -11 9
-15 8 -3 15 -12 15 -21 0 -16 54 -22 64 -7 2 4 24 9 48 11 23 1 44 4 47 6 2 2
12 0 23 -6 14 -7 23 -7 33 1 9 8 19 8 32 1 10 -5 47 -16 83 -24 59 -14 68 -13
95 2 16 9 36 22 43 29 7 6 21 12 31 12 9 0 21 4 27 8 5 5 35 14 67 21 31 7 57
16 57 19 0 7 60 26 122 39 15 3 25 9 22 14 -3 5 6 5 20 -1 17 -6 26 -6 26 0 0
15 15 12 37 -7 22 -20 93 -223 93 -266 0 -16 4 -26 9 -23 5 3 12 -5 15 -18 3
-13 15 -26 26 -29 12 -3 20 -14 21 -29 1 -17 3 -18 6 -5 6 23 23 12 23 -16 0
-16 3 -18 9 -8 7 10 10 10 16 1 4 -7 3 -15 -3 -19 -6 -4 -3 -15 9 -30 l19 -23
0 31 c0 20 4 30 11 26 5 -4 21 5 34 19 13 14 29 26 35 26 5 0 10 5 10 10 0 11
55 67 111 113 107 86 206 43 254 -109 15 -48 16 -68 8 -123 -18 -117 -92 -268
-157 -322 -13 -11 -16 -18 -8 -23 7 -4 12 -2 12 5 0 9 3 9 14 0 15 -13 20
-101 6 -101 -6 0 -10 -4 -10 -10 0 -5 7 -10 15 -10 18 0 20 -37 3 -42 -9 -3
-9 -6 0 -12 7 -4 12 -2 12 3 0 6 4 11 9 11 5 0 12 -19 16 -42 4 -24 13 -52 20
-63 14 -21 30 -114 40 -230 3 -38 10 -88 15 -110 4 -22 14 -67 20 -100 19
-100 62 -173 136 -228 75 -56 88 -86 53 -123 -32 -34 -220 -157 -348 -229 -57
-32 -112 -66 -122 -76 -17 -17 -91 -37 -113 -30 -45 12 -78 -41 -91 -146 -4
-29 -11 -55 -16 -59 -5 -3 -9 -13 -9 -23 0 -10 -7 -24 -15 -31 -8 -7 -15 -27
-15 -44 0 -20 -3 -27 -9 -18 -9 15 -20 -8 -42 -85 -7 -24 -15 -43 -19 -43 -9
0 -25 -50 -29 -87 0 -7 -16 -30 -35 -50 -68 -76 -80 -114 -82 -255 l-2 -126
964 -2 964 -1 0 426 c0 418 0 425 -20 425 -11 0 -20 5 -20 10 0 6 9 10 20 10
17 0 20 7 20 44 0 39 -3 44 -27 50 -30 8 -112 23 -178 34 -31 6 -40 11 -40 27
0 14 -10 23 -35 31 -19 6 -36 16 -38 22 -2 6 -10 8 -17 6 -23 -9 -73 26 -68
47 5 19 -20 28 -30 12 -2 -5 -3 -3 -1 3 3 14 -61 48 -75 40 -6 -4 -16 -2 -23
4 -7 6 -22 17 -33 25 -19 14 -19 14 8 15 15 0 49 -11 75 -24 86 -44 156 -71
212 -82 19 -3 46 -12 60 -19 14 -7 60 -25 103 -40 42 -15 80 -31 83 -36 14
-24 24 -4 24 49 l0 59 -40 12 c-22 6 -40 16 -40 21 0 4 -3 15 -6 24 -7 19 41
66 67 66 12 0 19 7 19 18 0 16 -8 19 -65 18 -69 -1 -79 5 -41 26 13 7 42 23
65 36 l41 22 0 155 c0 152 0 154 -26 180 -27 27 -25 45 7 45 19 0 19 12 19
490 l0 490 -30 0 c-17 0 -56 14 -87 30 -31 17 -64 30 -74 30 -11 0 -19 3 -19
6 0 14 22 44 33 44 19 1 69 49 62 60 -3 6 -1 10 4 10 6 0 11 7 11 15 0 14 -18
20 -50 16 -88 -10 -118 3 -68 30 14 8 18 14 10 17 -26 8 -2 143 32 181 24 26
31 26 63 1 24 -19 27 -19 44 -4 10 9 21 25 24 35 4 11 15 19 26 19 19 0 19 13
19 529 l0 530 -35 12 -35 13 35 36 35 36 0 107 0 107 -300 0 c-193 0 -300 -4
-300 -10 0 -5 8 -10 19 -10 10 0 24 -7 31 -15 12 -15 32 -25 130 -68 37 -17
90 -60 90 -75 0 -4 14 -18 30 -30 17 -13 30 -30 30 -40 0 -14 -2 -13 -15 5
-17 24 -95 63 -127 63 -13 0 -36 -7 -52 -15 -35 -18 -50 -19 -101 -1 -39 14
-75 47 -75 71 0 17 -28 28 -66 26 -30 -2 -31 -1 -38 48 -6 49 -8 51 -37 51
-19 0 -43 -10 -61 -25 -42 -35 -98 -32 -98 6 0 15 -7 19 -37 19 l-36 0 22 -23
c18 -20 19 -26 8 -35 -8 -7 -27 -15 -44 -18 -25 -5 -29 -10 -25 -29 7 -37 -18
-41 -47 -8 -14 16 -39 35 -54 41 -33 14 -87 16 -87 3 0 -10 -42 -29 -79 -36
-12 -2 -28 -8 -35 -13 -6 -4 -17 -7 -23 -6 -7 1 -20 2 -28 3 -24 2 -17 27 14
54 19 16 47 26 84 30 64 8 87 15 87 28 0 5 -426 9 -1014 9 l-1014 0 -7 -30
c-11 -49 -37 -66 -95 -64 -48 3 -50 2 -50 -24 0 -15 9 -65 20 -111 14 -56 17
-87 10 -91 -5 -3 -16 -30 -22 -58 -7 -29 -17 -51 -23 -49 -10 4 -11 8 -14 46
0 10 -12 30 -26 45 -13 14 -29 43 -36 64 -12 42 -1 74 48 138 28 37 22 61 -16
70 -44 11 -54 24 -35 45 17 18 14 19 -78 19 -90 0 -97 -1 -112 -24 -9 -14 -32
-32 -51 -42 -19 -9 -35 -21 -35 -28 0 -6 -29 -41 -65 -78 -35 -37 -67 -80 -71
-95 -10 -41 -22 -52 -63 -59 -20 -4 -42 -11 -49 -17 -17 -13 -15 -46 3 -53 14
-6 26 -40 39 -111 l5 -33 -58 2 c-54 1 -62 -2 -103 -35 -25 -20 -49 -37 -53
-37 -5 0 -16 -6 -24 -13 -27 -23 -95 -37 -173 -37 -97 0 -112 13 -73 64 45 59
106 67 167 24 14 -10 24 -8 56 10 22 12 53 22 68 22 39 0 54 34 47 105 -4 42
-3 55 7 55 7 0 11 3 7 6 -3 3 -34 8 -67 10 -55 3 -63 1 -67 -16 -3 -11 -8 -20
-11 -20 -14 0 -31 39 -32 72 0 52 25 65 119 63 56 -2 77 -6 86 -19 7 -9 26
-21 43 -25 29 -9 30 -8 35 27 2 21 0 56 -6 79 -14 56 4 138 40 175 l27 28
-332 0 -331 0 -1 -940z m4370 846 c0 -18 -16 -29 -30 -21 -13 8 -1 35 16 35 8
0 14 -6 14 -14z m-4182 -44 c3 -33 3 -33 -35 -30 -27 2 -39 8 -41 21 -7 34 6
48 40 45 29 -3 33 -7 36 -36z m3602 -117 c0 -23 -29 -88 -43 -97 -20 -13 -27
-9 -44 27 -16 33 -15 36 1 54 16 18 35 25 74 30 6 0 12 -6 12 -14z m-2456 -21
c16 -42 -2 -76 -29 -54 -15 13 -20 51 -8 63 11 12 31 7 37 -9z m1926 11 c0
-22 -33 -77 -55 -91 -20 -13 -25 -24 -23 -48 3 -34 -21 -47 -47 -26 -17 14
-20 50 -4 50 5 0 16 15 24 33 19 43 61 87 85 87 11 0 20 -2 20 -5z m-824 -32
l26 -28 -40 -8 c-32 -6 -45 -4 -61 10 -34 29 -27 53 14 53 26 0 43 -7 61 -27z
m1867 -50 c8 -10 17 -31 19 -47 3 -30 10 -36 63 -55 47 -18 57 -41 42 -98 -16
-63 -26 -76 -64 -95 -32 -16 -112 -17 -147 -3 -24 11 -82 64 -104 97 -9 14
-32 45 -49 68 -33 43 -45 102 -23 115 11 7 50 -14 68 -37 7 -10 22 -18 33 -18
14 0 19 7 19 29 0 37 15 49 70 54 25 2 48 4 51 5 3 1 13 -6 22 -15z m-795 -12
c-16 -26 -137 -105 -162 -105 -28 -1 -33 39 -11 81 16 29 23 32 69 36 122 8
117 9 104 -12z m-728 -35 c0 -13 -9 -52 -19 -87 -10 -35 -24 -82 -30 -104
l-10 -40 5 45 c3 25 12 70 21 100 8 30 15 67 15 83 0 15 4 27 9 27 5 0 9 -11
9 -24z m129 -19 c22 -21 62 -43 101 -57 36 -12 88 -36 115 -53 77 -48 233
-178 297 -246 56 -59 79 -68 92 -35 3 8 10 14 15 14 17 0 0 -29 -20 -35 -25
-8 -21 -24 32 -126 83 -163 155 -421 145 -524 -3 -33 -7 -74 -8 -91 -2 -18
-11 -41 -20 -51 -10 -11 -18 -31 -18 -45 0 -14 -4 -38 -9 -54 -5 -16 -12 -41
-15 -55 -3 -14 -15 -36 -27 -50 -12 -13 -20 -17 -17 -9 7 23 -21 62 -82 114
-123 105 -237 170 -410 231 -58 21 -114 41 -125 46 -42 18 -141 39 -188 39
-42 0 -48 2 -43 18 5 14 -6 24 -46 44 -29 14 -60 28 -69 31 -17 5 -33 57 -18
57 5 0 13 19 19 43 6 23 21 74 34 112 35 103 73 232 90 300 8 33 21 85 30 115
42 155 62 275 47 284 -6 4 -11 12 -11 18 0 22 73 -1 109 -35z m-2689 24 c0 -4
-11 -25 -25 -45 -14 -21 -34 -55 -46 -77 -11 -22 -30 -44 -43 -49 -13 -5 -26
-15 -29 -22 -3 -8 -9 -2 -18 15 -20 43 4 102 60 145 24 18 50 31 57 28 7 -3
16 -1 19 4 8 12 25 13 25 1z m1970 -106 c41 -22 87 -69 111 -116 20 -37 23
-59 23 -139 0 -86 -3 -103 -34 -174 -18 -43 -39 -80 -45 -83 -7 -2 -38 7 -70
22 -129 56 -318 94 -407 81 -44 -7 -123 -49 -131 -71 -3 -6 26 -9 87 -7 50 2
102 -1 116 -6 18 -7 -5 -8 -75 -5 -80 5 -107 2 -132 -10 l-30 -16 18 37 c11
20 31 46 47 58 15 12 27 26 27 31 0 11 67 117 77 121 5 2 5 9 2 14 -4 7 -2 8
4 4 7 -4 19 9 32 34 11 22 25 40 31 40 6 0 7 5 4 11 -4 6 2 13 14 16 12 3 21
11 21 18 0 7 29 41 64 76 97 96 156 111 246 64z m-980 -35 c0 -5 -5 -10 -11
-10 -5 0 -7 5 -4 10 3 6 8 10 11 10 2 0 4 -4 4 -10z m2318 -137 c17 -24 15
-32 -12 -44 -41 -19 -73 -4 -78 35 -2 19 -2 39 0 45 5 14 72 -13 90 -36z
m-824 -49 c-23 -87 -29 -75 -7 16 10 39 19 67 21 61 2 -7 -4 -41 -14 -77z
m1409 24 l6 -22 23 22 c24 22 62 21 83 -2 6 -6 19 -16 30 -22 14 -8 21 -24 23
-54 5 -61 -3 -81 -43 -123 -20 -20 -47 -61 -60 -89 -38 -81 -32 -108 21 -88
15 6 31 7 36 2 11 -11 -27 -84 -58 -113 -29 -27 -59 -19 -48 13 12 36 11 88
-1 88 -6 0 -32 -22 -57 -50 -25 -27 -55 -50 -65 -50 -11 0 -29 13 -40 29 -23
31 -28 87 -20 233 4 72 7 79 41 112 19 20 42 36 50 36 10 0 18 14 22 38 9 55
47 81 57 40z m-2464 -12 c14 -17 5 -41 -25 -72 -13 -12 -24 -27 -24 -32 0 -4
-18 -19 -40 -32 -22 -14 -40 -28 -40 -31 0 -3 -11 -4 -24 -2 -23 5 -24 8 -20
66 2 33 8 65 14 71 11 11 105 43 131 45 9 1 22 -5 28 -13z m-329 -32 c0 -10
13 -14 44 -14 l45 0 -6 -37 c-7 -53 -43 -122 -76 -147 -19 -14 -44 -21 -82
-22 -50 -1 -55 1 -63 25 -5 14 -5 33 -1 41 5 8 23 47 40 85 17 39 35 75 40 81
12 15 59 5 59 -12z m-896 -50 c11 -28 6 -54 -10 -61 -20 -7 -34 13 -34 50 0
20 5 27 19 27 10 0 22 -7 25 -16z m3486 -44 c0 -5 -4 -10 -10 -10 -5 0 -10 5
-10 10 0 6 5 10 10 10 6 0 10 -4 10 -10z m-1243 -32 c-3 -8 -6 -5 -6 6 -1 11
2 17 5 13 3 -3 4 -12 1 -19z m1024 -18 c26 -15 25 -57 -2 -65 -29 -10 -42 7
-34 44 7 35 8 35 36 21z m-1047 -64 c-10 -31 -19 -54 -22 -52 -2 2 4 29 14 60
10 31 19 54 22 52 2 -2 -4 -29 -14 -60z m1814 -91 c-3 -27 -6 -30 -44 -33 -29
-2 -47 2 -58 14 -26 25 -14 39 33 36 39 -2 42 -1 48 30 6 31 6 31 15 8 5 -14
8 -38 6 -55z m-2555 28 c-7 -2 -19 -2 -25 0 -7 3 -2 5 12 5 14 0 19 -2 13 -5z
m117 -29 c55 -20 22 -16 -45 6 -33 11 -44 17 -25 13 19 -3 50 -11 70 -19z
m1760 -18 c0 -25 -6 -38 -25 -50 -25 -16 -26 -16 -35 10 -7 18 -7 30 0 39 6 7
7 15 3 17 -4 3 -3 3 4 2 7 -2 15 1 18 6 14 23 35 9 35 -24z m-2225 4 c17 -6
14 -9 -20 -19 -50 -14 -64 -14 -45 0 12 9 11 10 -5 4 -11 -3 -33 -9 -50 -12
-24 -4 -27 -2 -15 7 13 10 12 11 -3 6 -10 -3 -24 -6 -30 -6 -7 0 24 -15 68
-34 91 -37 185 -84 185 -91 0 -3 -23 6 -52 21 -75 38 -228 96 -241 91 -7 -2 6
-10 28 -17 63 -20 149 -60 143 -65 -3 -3 -27 5 -54 19 -86 42 -171 66 -235 66
-68 0 -74 20 -6 21 23 0 78 6 122 14 77 12 168 10 210 -5z m80 -26 c17 -8 22
-12 12 -9 -59 16 -67 13 -22 -9 65 -31 55 -33 -20 -2 -43 17 -54 25 -40 29 32
8 38 7 70 -9z m-1347 -7 c6 -7 14 -32 18 -55 3 -23 13 -47 21 -54 21 -17 43
-75 43 -112 0 -27 -22 -85 -59 -156 -12 -23 -35 -23 -64 0 -31 25 -34 46 -11
78 9 13 18 49 21 80 5 51 2 62 -22 97 -28 42 -30 90 -4 121 14 18 43 18 57 1z
m1882 3 c8 -5 11 -10 5 -10 -5 0 -17 5 -25 10 -8 5 -10 10 -5 10 6 0 17 -5 25
-10z m-1095 -10 c-3 -5 -14 -10 -23 -9 -14 0 -13 2 3 9 27 11 27 11 20 0z
m463 -22 c65 -27 148 -72 102 -55 -26 9 -185 79 -189 83 -11 10 16 1 87 -28z
m32 12 c45 -24 28 -24 -25 0 -22 10 -33 19 -25 19 8 0 31 -8 50 -19z m1027 -2
c-3 -8 -6 -5 -6 6 -1 11 2 17 5 13 3 -3 4 -12 1 -19z m-1740 -17 c43 -31 57
-68 38 -95 -15 -20 -28 -20 -65 -1 -23 12 -30 13 -30 3 0 -9 -3 -10 -8 -2 -4
6 -16 14 -27 18 -45 14 -48 76 -4 76 9 0 22 7 29 15 17 20 21 19 67 -14z
m1358 19 c3 -6 -1 -7 -9 -4 -18 7 -21 14 -7 14 6 0 13 -4 16 -10z m-485 -10
c13 -8 13 -10 -2 -10 -9 0 -20 5 -23 10 -8 13 5 13 25 0z m527 -6 c-3 -3 -12
-4 -19 -1 -8 3 -5 6 6 6 11 1 17 -2 13 -5z m-517 -26 c10 -6 7 -7 -10 -2 -14
3 -32 11 -40 16 -10 6 -7 7 10 2 14 -3 32 -11 40 -16z m565 4 c-3 -3 -11 0
-18 7 -9 10 -8 11 6 5 10 -3 15 -9 12 -12z m274 -21 c-6 -18 -13 -30 -15 -28
-2 2 1 18 7 36 6 18 13 30 15 28 2 -2 -1 -18 -7 -36z m-889 9 c19 -11 31 -19
25 -19 -5 0 -26 8 -45 19 -19 11 -30 19 -25 19 6 0 26 -8 45 -19z m148 13
c-10 -2 -26 -2 -35 0 -10 3 -2 5 17 5 19 0 27 -2 18 -5z m269 1 c-3 -3 -12 -4
-19 -1 -8 3 -5 6 6 6 11 1 17 -2 13 -5z m-180 -10 c-3 -3 -12 -4 -19 -1 -8 3
-5 6 6 6 11 1 17 -2 13 -5z m40 0 c-3 -3 -12 -4 -19 -1 -8 3 -5 6 6 6 11 1 17
-2 13 -5z m393 -9 c14 -8 21 -14 15 -14 -5 0 -21 6 -35 14 -14 8 -20 14 -15
14 6 0 21 -6 35 -14z m1488 -5 c24 -23 29 -40 10 -40 -22 0 -79 40 -73 50 10
16 40 11 63 -10z m-2031 -6 c-3 -3 -12 -4 -19 -1 -8 3 -5 6 6 6 11 1 17 -2 13
-5z m366 -1 c-7 -2 -21 -2 -30 0 -10 3 -4 5 12 5 17 0 24 -2 18 -5z m317 -50
c3 -3 -6 -2 -19 2 -39 12 -91 35 -91 40 0 5 102 -34 110 -42z m-906 16 c20
-12 36 -23 36 -25 0 -5 -44 18 -70 35 -27 19 -2 11 34 -10z m116 11 c8 -5 11
-10 5 -10 -5 0 -17 5 -25 10 -8 5 -10 10 -5 10 6 0 17 -5 25 -10z m77 4 c-3
-3 -12 -4 -19 -1 -8 3 -5 6 6 6 11 1 17 -2 13 -5z m-112 -24 c3 -6 -1 -7 -9
-4 -18 7 -21 14 -7 14 6 0 13 -4 16 -10z m95 -5 c14 -8 21 -14 15 -14 -5 0
-21 6 -35 14 -14 8 -20 14 -15 14 6 0 21 -6 35 -14z m118 8 c-10 -2 -26 -2
-35 0 -10 3 -2 5 17 5 19 0 27 -2 18 -5z m185 -10 c-7 -2 -21 -2 -30 0 -10 3
-4 5 12 5 17 0 24 -2 18 -5z m478 -29 c-5 -16 -10 -21 -10 -12 -1 18 10 51 15
45 2 -1 -1 -16 -5 -33z m-841 -20 c0 -2 -13 2 -30 11 -16 9 -30 18 -30 21 0 2
14 -2 30 -11 17 -9 30 -18 30 -21z m197 20 c-3 -3 -12 -4 -19 -1 -8 3 -5 6 6
6 11 1 17 -2 13 -5z m290 0 c-3 -3 -12 -4 -19 -1 -8 3 -5 6 6 6 11 1 17 -2 13
-5z m-402 -14 c3 -6 -1 -7 -9 -4 -18 7 -21 14 -7 14 6 0 13 -4 16 -10z m222 4
c-3 -3 -12 -4 -19 -1 -8 3 -5 6 6 6 11 1 17 -2 13 -5z m-171 -22 c-10 -2 -22
0 -28 6 -6 6 0 7 19 4 21 -5 23 -7 9 -10z m111 -18 c-3 -3 -12 -4 -19 -1 -8 3
-5 6 6 6 11 1 17 -2 13 -5z m420 -20 c-3 -3 -12 -4 -19 -1 -8 3 -5 6 6 6 11 1
17 -2 13 -5z m-470 -10 c-3 -3 -12 -4 -19 -1 -8 3 -5 6 6 6 11 1 17 -2 13 -5z
m80 -10 c-3 -3 -12 -4 -19 -1 -8 3 -5 6 6 6 11 1 17 -2 13 -5z m241 -1 c-10
-2 -28 -2 -40 0 -13 2 -5 4 17 4 22 1 32 -1 23 -4z m-100 -10 c-10 -2 -28 -2
-40 0 -13 2 -5 4 17 4 22 1 32 -1 23 -4z m1874 -125 c8 -23 -5 -68 -19 -68
-18 0 -56 19 -65 34 -15 22 -8 32 24 34 18 2 34 5 37 7 8 9 19 5 23 -7z
m-3154 -155 c-2 -20 -9 -29 -25 -31 -13 -2 -23 -7 -23 -11 0 -3 -13 -15 -30
-24 -16 -10 -30 -23 -30 -28 0 -6 -13 -29 -28 -52 -16 -23 -32 -55 -36 -72
-11 -47 -28 -85 -38 -85 -5 0 -6 4 -3 10 3 5 0 7 -9 4 -27 -10 -30 39 -5 97
32 75 60 117 110 165 47 44 61 52 97 53 20 1 23 -3 20 -26z m792 5 c0 -6 -3
-9 -6 -5 -8 7 -67 -13 -76 -27 -6 -8 -11 -6 -17 4 -6 8 -6 19 -1 25 12 15 100
18 100 3z m2298 -10 c17 -17 15 -28 -7 -28 -22 0 -35 15 -26 30 8 13 18 13 33
-2z m-2410 -86 c2 -12 -2 -22 -8 -22 -6 0 -8 -5 -4 -11 11 -18 -16 -28 -49
-18 -36 10 -37 11 -42 38 -3 15 2 22 18 26 12 2 31 6 42 8 31 7 40 2 43 -21z
m-368 -80 c0 -18 -30 -28 -39 -13 -5 7 -6 23 -4 36 5 22 6 22 24 7 10 -9 19
-22 19 -30z m3111 -94 c10 -18 8 -24 -7 -35 -23 -17 -29 -16 -43 1 -9 11 -10
20 -1 35 14 27 36 27 51 -1z m-3940 -68 c32 -18 23 -40 -15 -40 -19 0 -41 -3
-50 -6 -21 -8 -21 14 1 38 18 20 36 23 64 8z m3589 0 c0 -5 -4 -10 -10 -10 -5
0 -10 5 -10 10 0 6 5 10 10 10 6 0 10 -4 10 -10z m-3360 -30 c0 -17 -7 -20
-39 -20 -22 0 -41 -4 -43 -8 -1 -5 -26 -12 -55 -15 -55 -6 -79 6 -67 37 7 18
34 22 34 5 0 -5 5 -7 11 -3 10 6 89 19 142 23 11 1 17 -6 17 -19z m3925 -36
c29 11 18 -50 -12 -72 -31 -21 -130 -69 -153 -73 -26 -5 -80 12 -80 25 0 12
73 59 81 52 2 -2 16 -6 31 -10 22 -5 33 0 58 25 16 17 27 35 24 40 -10 17 7
31 22 18 7 -6 21 -9 29 -5z m-4223 -80 c-4 -25 -27 -43 -38 -31 -6 6 27 56 37
57 3 0 4 -12 1 -26z m3832 -47 c5 -20 14 -37 20 -36 36 4 46 -2 46 -29 0 -33
16 -52 44 -52 17 0 16 -4 -13 -34 -41 -42 -151 -82 -181 -66 -11 6 -20 7 -20
3 0 -4 -5 -1 -10 7 -19 30 -10 82 31 162 5 10 9 23 9 28 0 20 35 60 50 57 8
-1 19 -19 24 -40z m449 -204 c38 -44 47 -196 12 -215 -12 -7 -20 -5 -30 9 -8
10 -15 23 -15 29 0 6 -11 22 -24 36 -33 37 -37 54 -21 91 7 17 16 40 19 50 3
9 14 17 24 17 10 0 26 -8 35 -17z m-3450 -30 c4 -3 2 -12 -4 -20 -9 -10 -15
-10 -25 -2 -8 6 -11 15 -8 20 6 11 28 12 37 2z m2759 -73 c5 0 8 7 4 15 -7 20
6 19 26 -2 9 -10 23 -23 31 -30 11 -9 14 -29 13 -70 -3 -52 -6 -59 -29 -67
-20 -7 -38 -3 -87 22 -34 18 -67 32 -74 32 -18 0 -66 46 -66 63 0 12 19 9 96
-15 53 -16 98 -27 102 -24 3 4 -4 24 -16 45 -12 21 -21 47 -21 57 1 15 3 14 6
-3 2 -13 9 -23 15 -23z m-985 -2 c-3 -8 -6 -5 -6 6 -1 11 2 17 5 13 3 -3 4
-12 1 -19z m1183 -2 c0 -3 -4 -8 -10 -11 -5 -3 -10 -1 -10 4 0 6 5 11 10 11 6
0 10 -2 10 -4z m-1046 -32 c3 -8 2 -12 -4 -9 -6 3 -10 10 -10 16 0 14 7 11 14
-7z m46 -44 c0 -5 -2 -10 -4 -10 -3 0 -8 5 -11 10 -3 6 -1 10 4 10 6 0 11 -4
11 -10z m-23 -52 c-3 -7 -5 -2 -5 12 0 14 2 19 5 13 2 -7 2 -19 0 -25z m20 -5
c-3 -10 -5 -4 -5 12 0 17 2 24 5 18 2 -7 2 -21 0 -30z m45 -23 c-9 -26 -18
-36 -23 -29 -9 16 -1 62 14 71 22 13 25 -2 9 -42z m1167 19 c15 -43 14 -89 -2
-89 -24 0 -57 31 -57 53 0 24 26 67 40 67 4 0 13 -14 19 -31z m-1218 -42 c-1
-4 -1 -15 -1 -26 0 -12 -9 -20 -28 -24 -17 -3 -29 -12 -29 -21 0 -21 23 -20
37 2 11 16 11 16 6 -1 -3 -10 -6 -22 -6 -27 0 -5 -8 -16 -17 -25 -13 -14 -14
-21 -4 -36 12 -20 7 -39 -10 -39 -6 0 -7 9 -4 20 7 21 -10 28 -18 8 -3 -8 -6
-6 -6 5 -1 9 3 17 9 17 5 0 7 6 4 14 -3 8 0 17 6 21 8 5 8 10 0 20 -16 19 -2
68 17 60 11 -4 13 -1 9 12 -4 9 -1 20 6 25 15 9 30 6 29 -5z m-67 -26 c-11 -8
-13 -18 -19 -88 -4 -55 -14 -79 -22 -55 -4 10 -8 10 -19 1 -8 -7 -17 -9 -21
-5 -3 3 6 17 22 30 23 20 29 35 33 80 2 31 8 53 13 50 5 -3 9 1 10 8 0 10 2
10 6 -1 3 -7 2 -16 -3 -20z m-37 -23 c-3 -8 -6 -5 -6 6 -1 11 2 17 5 13 3 -3
4 -12 1 -19z m-20 -18 c0 -16 -4 -27 -9 -24 -10 6 -11 38 -1 47 9 10 10 10 10
-23z m-715 -12 c-8 -8 -9 -4 -5 13 4 13 8 18 11 10 2 -7 -1 -18 -6 -23z m145
-40 c-3 -7 -5 -2 -5 12 0 14 2 19 5 13 2 -7 2 -19 0 -25z m-1627 -10 c23 -29
12 -70 -21 -79 -13 -4 -43 -7 -66 -8 -41 -1 -43 0 -43 29 0 26 4 30 28 30 21
0 32 7 40 25 14 31 38 32 62 3z m1664 0 c3 -13 0 -27 -6 -33 -8 -7 -9 -6 -4 2
4 7 2 22 -4 33 -6 11 -7 20 -2 20 6 0 12 -10 16 -22z m-1488 -47 c35 -38 44
-78 20 -87 -34 -13 -76 34 -90 103 -7 29 -5 31 15 26 12 -3 37 -22 55 -42z
m1387 -1 c3 -11 1 -18 -4 -14 -5 3 -9 12 -9 20 0 20 7 17 13 -6z m-230 -31
c-4 -12 -11 -18 -20 -15 -7 3 -16 -1 -19 -9 -7 -18 -24 -20 -24 -3 0 18 27 44
48 45 15 1 18 -3 15 -18z m1889 -49 c13 1 48 9 78 20 71 25 96 25 114 -1 21
-31 11 -46 -44 -64 -26 -9 -60 -29 -76 -45 -32 -33 -65 -38 -84 -15 -10 12
-30 15 -87 13 -79 -3 -93 4 -93 50 0 26 63 89 94 94 13 3 31 -7 48 -24 15 -15
37 -28 50 -28z m-1858 34 c3 -8 2 -12 -4 -9 -6 3 -10 10 -10 16 0 14 7 11 14
-7z m-49 -13 c3 -5 1 -12 -5 -16 -5 -3 -10 1 -10 9 0 18 6 21 15 7z m-1918
-17 c2 -6 -9 -23 -24 -38 -24 -24 -28 -25 -36 -10 -14 25 8 66 35 62 12 -2 23
-8 25 -14z m2614 -7 c-10 -9 -11 -8 -5 6 3 10 9 15 12 12 3 -3 0 -11 -7 -18z
m-79 -32 c-2 -14 -9 -22 -14 -19 -5 3 -7 13 -4 21 5 12 1 14 -14 10 -11 -3
-20 -1 -20 3 0 10 30 18 46 13 6 -2 9 -15 6 -28z m61 -5 c-3 -12 -8 -19 -11
-16 -5 6 5 36 12 36 2 0 2 -9 -1 -20z m-146 -52 c-3 -8 -6 -5 -6 6 -1 11 2 17
5 13 3 -3 4 -12 1 -19z m1779 -3 c4 -8 12 -15 19 -15 20 0 29 -20 15 -33 -9
-9 -14 -8 -24 6 -7 9 -18 17 -25 17 -6 0 -11 9 -11 20 0 23 18 27 26 5z
m-1675 -32 c-12 -20 -14 -14 -5 12 4 9 9 14 11 11 3 -2 0 -13 -6 -23z m-64
-20 c-3 -10 -5 -4 -5 12 0 17 2 24 5 18 2 -7 2 -21 0 -30z m63 -23 c0 -5 -2
-10 -4 -10 -3 0 -8 5 -11 10 -3 6 -1 10 4 10 6 0 11 -4 11 -10z m-1758 -121
c-12 -9 -19 -19 -16 -22 3 -3 -10 -17 -29 -31 -28 -21 -39 -25 -59 -17 -18 7
-24 16 -22 37 2 43 3 44 18 38 8 -3 17 0 21 5 3 6 11 9 16 5 6 -3 13 3 15 13
3 11 18 24 32 29 24 9 28 7 36 -15 7 -20 5 -28 -12 -42z m890 39 c-7 -7 -10
-5 -7 8 5 29 6 30 12 16 3 -8 1 -18 -5 -24z m1753 14 c-3 -3 -11 0 -18 7 -9
10 -8 11 6 5 10 -3 15 -9 12 -12z m-2740 -1 c3 -5 1 -12 -5 -16 -5 -3 -10 1
-10 9 0 18 6 21 15 7z m1612 -23 c-3 -7 -5 -2 -5 12 0 14 2 19 5 13 2 -7 2
-19 0 -25z m221 7 c-3 -3 -9 2 -12 12 -6 14 -5 15 5 6 7 -7 10 -15 7 -18z
m-523 -45 c3 -5 1 -10 -4 -10 -6 0 -11 5 -11 10 0 6 2 10 4 10 3 0 8 -4 11
-10z m1635 -20 c4 0 8 -10 8 -22 0 -13 3 -36 6 -53 6 -28 5 -28 -3 -4 -5 15
-18 36 -30 48 -25 25 -28 46 -5 37 9 -3 19 -6 24 -6z m77 -40 c33 -14 50 -38
36 -49 -4 -3 -26 12 -48 33 -22 22 -35 37 -30 34 6 -2 25 -11 42 -18z m97 -59
c10 -11 32 -23 48 -27 23 -4 27 -8 17 -15 -20 -12 -31 -11 -23 3 5 8 0 9 -14
6 -12 -4 -20 -2 -16 3 3 5 0 9 -6 9 -12 0 -40 24 -40 34 0 12 18 5 34 -13z
m-3016 -154 c-2 -15 -10 -22 -25 -23 -24 -1 -30 17 -17 50 9 24 46 1 42 -27z
m-93 -97 c-3 -5 -11 -10 -16 -10 -6 0 -7 5 -4 10 3 6 11 10 16 10 6 0 7 -4 4
-10z m-696 -374 c9 -11 3 -16 -33 -25 -25 -6 -55 -11 -68 -11 -19 0 -17 4 17
25 46 28 68 31 84 11z m2673 -390 c21 -25 20 -75 -3 -89 -54 -34 -116 56 -72
105 19 22 48 16 75 -16z"/>
<path d="M3061 3714 c0 -11 3 -14 6 -6 3 7 2 16 -1 19 -3 4 -6 -2 -5 -13z"/>
<path d="M3112 3650 c0 -14 2 -19 5 -12 2 6 2 18 0 25 -3 6 -5 1 -5 -13z"/>
<path d="M2823 3628 c-2 -18 0 -20 7 -8 12 18 13 30 2 30 -4 0 -9 -10 -9 -22z"/>
<path d="M3022 3590 c0 -14 2 -19 5 -12 2 6 2 18 0 25 -3 6 -5 1 -5 -13z"/>
<path d="M3155 3591 c-3 -5 -2 -12 3 -15 5 -3 9 1 9 9 0 17 -3 19 -12 6z"/>
<path d="M3042 3500 c0 -14 2 -19 5 -12 2 6 2 18 0 25 -3 6 -5 1 -5 -13z"/>
<path d="M3093 3485 c0 -8 4 -12 9 -9 5 3 6 10 3 15 -9 13 -12 11 -12 -6z"/>
<path d="M2072 4112 c-12 -2 -20 -8 -16 -13 6 -11 -41 -89 -55 -89 -4 0 -9
-26 -10 -57 -1 -36 -9 -70 -23 -94 -20 -36 -20 -40 -5 -57 24 -26 21 -42 -8
-42 -14 0 -25 -4 -25 -10 0 -5 -5 -10 -11 -10 -8 0 -8 4 -1 13 8 10 6 16 -10
26 l-22 14 24 19 c33 27 70 79 70 98 0 12 -8 15 -35 12 -30 -4 -33 -7 -25 -22
14 -26 13 -50 0 -30 -8 11 -9 8 -5 -11 5 -21 1 -31 -19 -47 -18 -13 -22 -22
-14 -25 7 -3 -18 -20 -57 -38 l-70 -34 115 -6 c97 -6 131 -12 220 -44 137 -48
148 -49 171 -5 31 58 52 159 45 214 -9 75 -47 145 -103 187 -61 46 -79 52 -89
31 -6 -15 -7 -15 -13 3 -4 14 -13 19 -29 17z m88 -82 c0 -5 -4 -10 -10 -10 -5
0 -10 5 -10 10 0 6 5 10 10 10 6 0 10 -4 10 -10z m-80 -110 c0 -5 -4 -10 -10
-10 -5 0 -10 5 -10 10 0 6 5 10 10 10 6 0 10 -4 10 -10z m120 -59 c0 -5 -7
-14 -15 -21 -12 -10 -15 -10 -15 2 0 8 3 18 7 21 9 10 23 9 23 -2z m-120 -151
c0 -5 -4 -10 -10 -10 -5 0 -10 5 -10 10 0 6 5 10 10 10 6 0 10 -4 10 -10z
m108 -21 c-2 -6 -8 -10 -13 -10 -5 0 -11 4 -13 10 -2 6 4 11 13 11 9 0 15 -5
13 -11z"/>
<path d="M1938 3983 c-9 -2 -19 -11 -22 -19 -7 -17 39 -20 50 -3 8 14 -7 27
-28 22z"/>
<path d="M1886 3877 c3 -10 9 -15 12 -12 3 3 0 11 -7 18 -10 9 -11 8 -5 -6z"/>
<path d="M1842 3872 c-7 -5 -10 -16 -6 -25 3 -10 -4 -26 -20 -42 -31 -31 -26
-32 19 -2 36 22 51 49 40 67 -7 12 -16 12 -33 2z"/>
<path d="M1917 3803 c-11 -10 13 -33 34 -33 23 0 24 7 5 26 -16 15 -29 18 -39
7z"/>
<path d="M1308 3523 c7 -3 16 -2 19 1 4 3 -2 6 -13 5 -11 0 -14 -3 -6 -6z"/>
<path d="M3877 2039 c7 -7 15 -10 18 -7 3 3 -2 9 -12 12 -14 6 -15 5 -6 -5z"/>
<path d="M2752 230 c0 -14 2 -19 5 -12 2 6 2 18 0 25 -3 6 -5 1 -5 -13z"/>
<path d="M1163 4593 c9 -2 23 -2 30 0 6 3 -1 5 -18 5 -16 0 -22 -2 -12 -5z"/>
<path d="M4128 4433 c6 -2 18 -2 25 0 6 3 1 5 -13 5 -14 0 -19 -2 -12 -5z"/>
<path d="M4080 4409 c0 -5 5 -7 10 -4 6 3 10 8 10 11 0 2 -4 4 -10 4 -5 0 -10
-5 -10 -11z"/>
<path d="M1979 3038 c-1 -2 -3 -36 -4 -75 -2 -80 3 -85 62 -62 34 13 183 21
183 9 0 -5 13 -3 29 3 l30 11 -29 18 c-17 10 -41 20 -54 24 -14 3 -31 13 -38
21 -10 13 -6 12 27 -2 22 -9 49 -22 60 -29 30 -19 57 -27 50 -16 -8 13 -100
60 -117 60 -7 0 -25 7 -40 14 -16 8 -28 10 -28 5 0 -6 -8 -5 -21 1 -11 7 -27
9 -35 6 -8 -3 -14 -1 -14 4 0 8 -57 15 -61 8z m150 -72 c24 5 31 3 31 -9 0
-20 -20 -27 -56 -19 -18 4 -30 14 -30 25 -2 13 1 15 11 7 7 -5 26 -7 44 -4z
m-69 -26 c0 -5 -2 -10 -4 -10 -3 0 -8 5 -11 10 -3 6 -1 10 4 10 6 0 11 -4 11
-10z"/>
<path d="M3295 2890 c28 -12 37 -12 30 0 -3 6 -16 10 -28 9 -21 0 -21 -1 -2
-9z"/>
<path d="M4578 2879 c-23 -13 -23 -45 -2 -53 22 -9 26 -3 22 32 -3 26 -6 29
-20 21z"/>
<path d="M3193 2868 c-20 -26 -22 -35 -8 -35 7 0 15 11 18 24 5 26 3 28 -10
11z"/>
<path d="M3142 2754 c2 -11 15 -18 36 -19 40 -3 40 -1 0 19 -39 20 -40 20 -36
0z"/>
<path d="M3100 2656 c0 -9 5 -16 10 -16 6 0 10 4 10 9 0 6 -4 13 -10 16 -5 3
-10 -1 -10 -9z"/>
<path d="M2821 2614 c0 -11 3 -14 6 -6 3 7 2 16 -1 19 -3 4 -6 -2 -5 -13z"/>
<path d="M2882 2601 c0 -17 1 -31 3 -31 7 0 12 39 5 49 -4 7 -7 -1 -8 -18z"/>
<path d="M2935 2540 c0 -22 3 -40 7 -40 5 0 8 6 8 14 0 8 6 16 13 19 8 3 6 11
-8 26 l-20 21 0 -40z"/>
<path d="M2880 2534 c0 -8 5 -12 10 -9 6 3 10 10 10 16 0 5 -4 9 -10 9 -5 0
-10 -7 -10 -16z"/>
<path d="M2911 2534 c0 -11 3 -14 6 -6 3 7 2 16 -1 19 -3 4 -6 -2 -5 -13z"/>
<path d="M1620 2490 c0 -11 6 -20 13 -21 6 -1 30 -3 52 -4 22 -2 53 -5 69 -7
16 -2 31 2 33 7 7 21 -54 45 -111 45 -49 0 -56 -2 -56 -20z"/>
<path d="M2872 2470 c0 -19 2 -27 5 -17 2 9 2 25 0 35 -3 9 -5 1 -5 -18z"/>
<path d="M2841 2474 c0 -11 3 -14 6 -6 3 7 2 16 -1 19 -3 4 -6 -2 -5 -13z"/>
<path d="M1850 2438 c-38 -24 -41 -28 -20 -28 27 1 74 34 68 48 -1 5 -23 -4
-48 -20z"/>
<path d="M2747 2443 c-4 -3 -7 -16 -6 -27 0 -19 1 -19 10 3 10 24 8 36 -4 24z"/>
<path d="M2845 2420 c-3 -5 -1 -10 4 -10 6 0 11 5 11 10 0 6 -2 10 -4 10 -3 0
-8 -4 -11 -10z"/>
<path d="M1600 2368 c-7 -18 -19 -48 -27 -66 -22 -49 -24 -72 -7 -72 8 0 14
-5 14 -10 0 -6 6 -5 14 2 8 8 10 15 4 19 -5 3 0 9 11 12 14 3 19 11 16 26 -2
11 0 23 5 26 4 3 7 13 6 23 -2 9 1 20 6 23 10 6 -11 49 -23 49 -4 0 -12 -15
-19 -32z"/>
<path d="M2817 2393 c-3 -5 -1 -17 4 -28 7 -17 8 -17 8 8 1 27 -4 34 -12 20z"/>
<path d="M1715 2380 c-17 -7 -17 -9 -2 -9 9 -1 17 -6 17 -12 0 -5 5 -7 10 -4
6 3 10 -1 10 -10 0 -9 -4 -13 -10 -10 -5 3 -10 -1 -10 -9 0 -9 5 -16 12 -16 6
0 8 -3 4 -7 -4 -5 -12 -8 -17 -8 -5 0 -9 -3 -9 -7 0 -5 0 -15 0 -23 0 -14 4
-14 31 0 30 16 31 16 24 -7 -5 -18 -4 -20 4 -8 6 8 11 11 11 6 0 -4 9 2 20 15
l19 24 1 -24 c0 -19 4 -22 20 -18 17 4 20 2 15 -16 -5 -18 -4 -19 4 -7 9 12
12 13 20 1 7 -11 9 -11 13 0 4 12 7 12 21 0 14 -11 17 -11 17 0 0 21 20 -12
20 -33 0 -15 -9 -18 -48 -18 -26 0 -53 5 -59 11 -8 8 -13 8 -17 0 -4 -6 -25
-11 -46 -11 -21 0 -42 -5 -46 -11 -4 -8 -9 -7 -15 2 -7 12 -11 12 -17 1 -6 -9
-18 -11 -37 -6 -28 7 -50 -10 -38 -29 3 -5 9 -4 13 2 6 11 34 12 328 10 30 -1
56 1 58 4 9 9 -8 35 -27 40 -10 3 -17 1 -13 -4 3 -5 -2 -9 -10 -9 -22 0 -20
27 2 35 13 3 19 15 20 35 1 32 -6 37 -27 18 -12 -11 -13 -10 -7 6 5 14 2 17
-10 12 -8 -3 -22 -6 -30 -6 -9 0 -13 -4 -9 -9 3 -5 -13 -2 -34 7 -22 9 -36 19
-30 20 5 2 6 8 3 14 -4 6 0 14 7 19 10 6 8 9 -9 9 -16 0 -21 4 -16 13 6 10 4
10 -7 0 -19 -18 -49 -16 -56 5 -12 31 -32 38 -68 22z m75 -54 c0 -2 -8 -10
-17 -17 -16 -13 -17 -12 -4 4 13 16 21 21 21 13z m40 -6 c0 -5 -5 -10 -11 -10
-5 0 -7 5 -4 10 3 6 8 10 11 10 2 0 4 -4 4 -10z"/>
<path d="M1797 2379 c7 -7 15 -10 18 -7 3 3 -2 9 -12 12 -14 6 -15 5 -6 -5z"/>
<path d="M1865 2370 c3 -5 10 -10 16 -10 5 0 9 5 9 10 0 6 -7 10 -16 10 -8 0
-12 -4 -9 -10z"/>
<path d="M1660 2335 c-10 -19 -11 -28 -3 -36 6 -6 9 -18 6 -25 -3 -8 1 -14 10
-14 20 0 23 12 19 61 -5 45 -13 49 -32 14z"/>
<path d="M1940 2339 c0 -5 -5 -7 -10 -4 -6 3 -13 -2 -17 -12 -4 -10 -11 -22
-17 -26 -6 -4 0 -6 14 -5 15 2 24 9 22 17 -2 8 3 11 13 8 8 -4 15 -2 15 4 0 6
5 7 10 4 6 -4 8 -10 5 -15 -3 -5 4 -8 15 -7 29 2 25 11 -15 30 -20 10 -35 12
-35 6z"/>
<path d="M2620 2311 c0 -11 4 -22 9 -25 4 -3 6 6 3 19 -5 30 -12 33 -12 6z"/>
<path d="M3120 2311 c-30 -3 -53 -9 -52 -13 2 -4 6 -17 9 -28 7 -25 9 -25 40
0 28 22 48 27 37 9 -5 -8 -1 -8 14 0 23 12 37 42 19 39 -7 -1 -37 -4 -67 -7z"/>
<path d="M2021 2260 c0 -14 4 -32 9 -40 8 -12 10 -12 9 5 0 11 -4 29 -9 40 -8
18 -9 18 -9 -5z"/>
<path d="M2707 2274 c-4 -4 -7 -19 -6 -33 l0 -26 10 24 c10 26 8 47 -4 35z"/>
<path d="M2691 2184 c0 -11 3 -14 6 -6 3 7 2 16 -1 19 -3 4 -6 -2 -5 -13z"/>
<path d="M3067 2161 c-4 -19 -5 -36 -2 -39 10 -11 16 7 13 40 l-3 33 -8 -34z"/>
<path d="M2757 2153 c-5 -29 11 -49 27 -33 10 10 0 60 -13 60 -5 0 -11 -12
-14 -27z"/>
<path d="M2650 2138 c0 -19 2 -20 10 -8 13 19 13 30 0 30 -5 0 -10 -10 -10
-22z"/>
<path d="M2677 2140 c-3 -11 -2 -22 2 -24 4 -3 8 6 9 20 2 29 -4 31 -11 4z"/>
<path d="M3282 2140 c0 -14 2 -19 5 -12 2 6 2 18 0 25 -3 6 -5 1 -5 -13z"/>
<path d="M3137 2124 c-8 -8 1 -24 14 -24 5 0 9 7 9 15 0 15 -12 20 -23 9z"/>
<path d="M2581 2104 c0 -11 3 -14 6 -6 3 7 2 16 -1 19 -3 4 -6 -2 -5 -13z"/>
<path d="M2664 2036 c-4 -10 -10 -13 -13 -8 -3 6 -7 -12 -8 -39 -1 -59 10 -56
27 6 12 44 7 76 -6 41z"/>
<path d="M3131 2024 c0 -11 3 -14 6 -6 3 7 2 16 -1 19 -3 4 -6 -2 -5 -13z"/>
<path d="M1700 2005 c-11 -13 -15 -13 -22 -3 -15 24 -39 -19 -26 -48 10 -22
62 -43 75 -30 3 3 14 1 24 -4 17 -9 18 -6 16 42 -2 49 -4 53 -28 56 -15 2 -31
-4 -39 -13z"/>
<path d="M2377 1986 c-4 -10 -5 -21 -2 -24 9 -9 17 6 13 25 -3 17 -4 17 -11
-1z"/>
<path d="M2462 1970 c0 -19 2 -27 5 -17 2 9 2 25 0 35 -3 9 -5 1 -5 -18z"/>
<path d="M1802 1970 c0 -14 2 -19 5 -12 2 6 2 18 0 25 -3 6 -5 1 -5 -13z"/>
<path d="M2341 1964 c0 -11 3 -14 6 -6 3 7 2 16 -1 19 -3 4 -6 -2 -5 -13z"/>
<path d="M2087 1949 c4 -13 8 -18 11 -10 2 7 -1 18 -6 23 -8 8 -9 4 -5 -13z"/>
<path d="M2497 1964 c-4 -4 -7 -17 -7 -28 1 -19 1 -20 11 -3 11 19 8 43 -4 31z"/>
<path d="M2142 1920 c7 -10 14 -18 15 -16 6 6 -9 36 -18 36 -5 0 -4 -9 3 -20z"/>
<path d="M2231 1904 c0 -11 3 -14 6 -6 3 7 2 16 -1 19 -3 4 -6 -2 -5 -13z"/>
<path d="M1727 1903 c-4 -3 -7 -11 -7 -17 0 -6 5 -5 12 2 6 6 9 14 7 17 -3 3
-9 2 -12 -2z"/>
<path d="M2120 1895 c7 -9 15 -13 17 -11 7 7 -7 26 -19 26 -6 0 -6 -6 2 -15z"/>
<path d="M2250 1894 c0 -8 5 -12 10 -9 6 4 8 11 5 16 -9 14 -15 11 -15 -7z"/>
<path d="M2095 1880 c-3 -5 -1 -10 4 -10 6 0 11 5 11 10 0 6 -2 10 -4 10 -3 0
-8 -4 -11 -10z"/>
<path d="M1931 1784 c0 -11 3 -14 6 -6 3 7 2 16 -1 19 -3 4 -6 -2 -5 -13z"/>
<path d="M1870 1739 l-35 -31 32 18 c18 10 35 24 37 31 7 18 6 17 -34 -18z"/>
<path d="M3087 1743 c-12 -11 -8 -23 7 -23 8 0 16 7 20 15 5 15 -14 21 -27 8z"/>
<path d="M2940 1730 c-9 -6 -10 -10 -3 -10 6 0 15 5 18 10 8 12 4 12 -15 0z"/>
<path d="M2807 1692 c-4 -18 -11 -31 -16 -28 -5 3 -7 -4 -3 -16 5 -21 5 -21
14 2 7 18 11 21 17 11 6 -10 10 -9 15 4 9 24 7 47 -3 41 -5 -4 -11 -1 -13 6
-3 7 -8 -2 -11 -20z"/>
<path d="M2925 1671 c0 -22 3 -37 8 -34 4 2 7 20 7 39 0 19 -3 34 -7 34 -5 0
-8 -18 -8 -39z"/>
<path d="M3214 1685 c-18 -14 -18 -14 4 -8 12 3 22 9 22 14 0 12 -3 11 -26 -6z"/>
<path d="M2950 1675 c0 -8 2 -15 4 -15 2 0 6 7 10 15 3 8 1 15 -4 15 -6 0 -10
-7 -10 -15z"/>
<path d="M3135 1680 c3 -5 8 -10 11 -10 2 0 4 5 4 10 0 6 -5 10 -11 10 -5 0
-7 -4 -4 -10z"/>
<path d="M3092 1653 c11 -14 10 -15 -12 -9 -22 6 -23 5 -6 -5 14 -9 21 -8 33
4 13 13 12 15 -7 20 -18 5 -19 3 -8 -10z"/>
<path d="M2760 1613 c0 -23 2 -25 11 -13 8 12 9 9 5 -11 -6 -27 1 -42 14 -34
10 6 -10 85 -21 85 -5 0 -9 -12 -9 -27z"/>
<path d="M2736 1605 c-9 -26 -7 -32 5 -12 6 10 9 21 6 23 -2 3 -7 -2 -11 -11z"/>
<path d="M3038 1563 c7 -3 16 -2 19 1 4 3 -2 6 -13 5 -11 0 -14 -3 -6 -6z"/>
<path d="M2920 1540 c20 -13 33 -13 25 0 -3 6 -14 10 -23 10 -15 0 -15 -2 -2
-10z"/>
<path d="M2988 1543 c7 -3 16 -2 19 1 4 3 -2 6 -13 5 -11 0 -14 -3 -6 -6z"/>
<path d="M2790 1533 c1 -19 29 -43 49 -43 13 0 19 4 16 10 -4 6 -10 8 -14 6
-4 -3 -18 4 -29 15 -12 11 -22 16 -22 12z"/>
<path d="M3040 1510 c-23 -7 -23 -8 -3 -9 12 -1 25 4 28 9 3 6 5 10 3 9 -2 -1
-14 -5 -28 -9z"/>
<path d="M2805 1470 c3 -5 8 -10 11 -10 2 0 4 5 4 10 0 6 -5 10 -11 10 -5 0
-7 -4 -4 -10z"/>
<path d="M3091 1470 c-7 -4 1 -7 18 -8 17 0 31 1 31 3 0 7 -39 12 -49 5z"/>
<path d="M2880 1426 c0 -2 7 -9 15 -16 9 -7 15 -8 15 -2 0 5 -7 12 -15 16 -8
3 -15 4 -15 2z"/>
<path d="M2542 1350 c0 -14 2 -19 5 -12 2 6 2 18 0 25 -3 6 -5 1 -5 -13z"/>
<path d="M1642 1348 c-16 -16 -15 -28 3 -28 8 0 15 9 15 20 0 23 -2 24 -18 8z"/>
<path d="M2475 1340 c-10 -11 -14 -20 -9 -20 5 0 15 9 22 20 7 11 11 20 9 20
-2 0 -12 -9 -22 -20z"/>
<path d="M2645 1343 c-5 -16 0 -15 45 2 l35 13 -37 -2 c-21 0 -40 -7 -43 -13z"/>
<path d="M2715 1337 c-16 -13 -15 -14 14 -9 17 2 34 8 37 13 8 14 -30 10 -51
-4z"/>
<path d="M2572 1321 c-11 -7 -10 -10 3 -15 22 -8 22 -8 22 9 0 17 -6 18 -25 6z"/>
<path d="M1556 1292 c-9 -39 22 -136 55 -171 11 -12 17 -26 13 -33 -4 -6 -3
-8 3 -5 10 6 83 -56 83 -72 0 -5 -7 -12 -16 -15 -8 -3 -12 -2 -9 3 3 6 -2 14
-11 19 -9 5 -15 13 -14 18 1 5 -4 10 -11 13 -8 2 -10 -2 -6 -13 11 -28 -21
-18 -45 14 -12 17 -25 30 -30 30 -15 0 -48 34 -48 50 0 8 -7 23 -14 33 -13 17
-15 16 -33 -13 -15 -27 -22 -31 -47 -26 -24 5 -27 4 -16 -9 10 -13 9 -15 -10
-15 -13 0 -24 -8 -27 -19 -4 -16 -8 -17 -18 -8 -10 9 -10 15 -1 26 7 10 8 15
1 18 -6 2 16 32 50 66 55 58 75 87 59 87 -15 0 -105 -72 -169 -135 -38 -38
-80 -76 -92 -84 -12 -8 -24 -23 -26 -33 -3 -10 -14 -18 -26 -18 -12 0 -24 -7
-27 -15 -4 -8 -10 -13 -14 -10 -12 8 -70 -25 -70 -40 0 -8 -4 -16 -9 -19 -5
-4 -7 2 -4 12 3 15 -3 18 -37 19 -31 2 -40 -1 -37 -11 4 -9 -14 -19 -52 -32
-44 -13 -57 -22 -54 -34 3 -10 -5 -21 -19 -28 l-23 -11 23 -7 c25 -7 30 -24 7
-24 -9 0 -18 -6 -21 -14 -3 -8 -13 -12 -24 -9 -10 3 -21 0 -24 -6 -4 -6 -18
-11 -32 -11 -13 0 -24 -4 -24 -10 0 -5 5 -10 10 -10 6 0 10 -7 10 -16 0 -8 -5
-12 -10 -9 -6 4 -23 -7 -37 -24 -15 -17 -32 -31 -38 -31 -6 0 -16 -9 -23 -20
-7 -12 -8 -20 -2 -20 5 0 10 -5 10 -11 0 -7 -9 -9 -21 -6 -11 3 -28 3 -37 -1
-14 -5 -12 -7 8 -12 23 -5 21 -8 -25 -37 -80 -51 -88 -59 -80 -83 4 -11 17
-32 31 -45 28 -28 31 -53 6 -62 -9 -4 -21 -12 -25 -20 -11 -18 -27 -17 -27 2
0 34 -16 12 -17 -24 -2 -33 1 -39 14 -34 11 4 14 2 9 -5 -4 -7 -14 -12 -22
-12 -17 0 -19 -16 -1 -23 7 -3 8 -6 1 -6 -13 -1 -10 -51 5 -91 5 -14 12 -34
16 -45 8 -22 11 -35 13 -77 2 -28 3 -28 73 -28 61 0 70 2 65 16 -3 9 -6 29 -6
45 0 19 -4 28 -11 23 -7 -4 -9 2 -7 16 2 13 -3 25 -10 27 -8 3 -10 -2 -6 -14
3 -10 -2 -7 -10 7 -8 14 -15 37 -16 53 0 20 -5 27 -20 27 -13 0 -22 10 -29 36
-11 38 -5 68 11 58 6 -4 8 5 3 24 -8 38 9 51 27 20 7 -13 18 -23 23 -24 6 0
24 -4 41 -8 25 -7 31 -13 31 -37 0 -17 -6 -29 -14 -29 -17 0 -17 -8 1 -25 7
-8 17 -11 20 -7 4 3 4 -1 0 -11 -3 -9 -2 -23 4 -30 6 -7 14 -47 18 -90 l7 -77
973 0 973 0 4 23 4 22 2 -22 c0 -13 5 -23 11 -23 14 0 18 30 24 162 4 97 2
117 -11 122 -8 3 -20 3 -25 -1 -7 -3 -8 -1 -4 6 4 6 -3 28 -16 49 -43 69 -48
77 -54 95 -3 9 -12 17 -20 17 -17 0 -34 31 -34 63 0 14 -7 30 -15 37 -8 6 -17
21 -21 32 -3 11 -22 48 -41 81 -26 44 -38 56 -44 46 -6 -9 -6 -1 -2 20 5 30 4
34 -13 29 -11 -3 -25 1 -32 8 -13 14 -17 88 -4 81 4 -3 13 1 20 9 10 11 6 17
-25 34 -21 12 -67 39 -103 60 -36 22 -75 44 -88 50 -13 5 -38 21 -56 35 -18
14 -37 25 -42 25 -6 0 -25 13 -44 30 -19 16 -38 29 -42 30 -4 0 -34 20 -67 45
-62 47 -71 52 -71 34 0 -11 -24 -39 -34 -39 -3 0 2 16 10 36 14 33 14 38 -1
53 -13 13 -17 14 -24 3 -5 -8 -12 -13 -17 -13 -5 1 -9 -2 -9 -6 0 -17 -17 -33
-35 -33 -10 0 -20 6 -23 13 -2 6 -2 -1 1 -18 4 -26 3 -28 -12 -16 -9 7 -16 22
-16 32 0 11 -5 16 -14 13 -8 -3 -21 10 -34 38 -15 31 -21 37 -23 23 -1 -14 -4
-10 -8 10 l-7 30 -8 -33z m51 -104 c-3 -8 -6 -5 -6 6 -1 11 2 17 5 13 3 -3 4
-12 1 -19z m-147 -92 c0 -3 -4 -8 -10 -11 -5 -3 -10 -1 -10 4 0 6 5 11 10 11
6 0 10 -2 10 -4z m-130 -30 c0 -3 -4 -8 -10 -11 -5 -3 -10 -1 -10 4 0 6 5 11
10 11 6 0 10 -2 10 -4z m120 -26 c0 -5 -4 -10 -10 -10 -5 0 -10 5 -10 10 0 6
5 10 10 10 6 0 10 -4 10 -10z m-150 -8 c0 -15 -24 -32 -46 -32 -12 0 -25 -6
-27 -12 -3 -7 -6 -8 -6 -2 -1 5 5 19 13 29 12 16 16 17 30 6 14 -11 16 -11 16
3 0 9 5 16 10 16 6 0 10 -4 10 -8z m-80 -11 c0 -13 -29 -35 -37 -27 -3 3 -1 6
5 6 7 0 12 7 12 15 0 8 5 15 10 15 6 0 10 -4 10 -9z m760 -115 c0 -3 -4 -8
-10 -11 -5 -3 -10 -1 -10 4 0 6 5 11 10 11 6 0 10 -2 10 -4z m4 -32 c9 -4 21
-15 27 -26 9 -17 8 -19 -8 -16 -10 2 -18 10 -18 18 0 9 -8 14 -18 12 -9 -2
-17 2 -17 8 0 11 11 13 34 4z m336 -143 c0 -18 -4 -14 -24 29 l-17 35 20 -25
c11 -14 21 -31 21 -39z m-1490 29 c-8 -5 -19 -10 -25 -10 -5 0 -3 5 5 10 8 5
20 10 25 10 6 0 3 -5 -5 -10z m1522 -105 c9 -20 9 -20 -6 -1 -9 11 -16 27 -15
35 0 14 1 14 6 1 3 -8 10 -24 15 -35z m-1812 -160 c0 -8 -4 -15 -10 -15 -5 0
-7 7 -4 15 4 8 8 15 10 15 2 0 4 -7 4 -15z m2070 -290 c0 -5 -5 -3 -10 5 -5 8
-10 20 -10 25 0 6 5 3 10 -5 5 -8 10 -19 10 -25z"/>
<path d="M1731 1304 c0 -11 3 -14 6 -6 3 7 2 16 -1 19 -3 4 -6 -2 -5 -13z"/>
<path d="M1707 1273 c-4 -3 -7 -13 -7 -22 1 -13 3 -13 11 2 11 19 8 33 -4 20z"/>
<path d="M1530 1230 c0 -5 5 -10 11 -10 5 0 7 5 4 10 -3 6 -8 10 -11 10 -2 0
-4 -4 -4 -10z"/>
<path d="M4230 1120 c-9 -6 -10 -10 -3 -10 6 0 15 5 18 10 8 12 4 12 -15 0z"/>
<path d="M2473 813 c6 -16 17 -32 24 -36 7 -4 13 -14 13 -21 0 -12 79 -163
100 -191 4 -5 29 -50 55 -100 26 -49 50 -94 53 -98 2 -5 13 4 23 19 18 28 18
28 -15 73 -18 25 -45 71 -61 101 -68 134 -108 205 -116 208 -5 2 -9 9 -9 16 0
16 -46 56 -65 56 -12 0 -13 -4 -2 -27z"/>
<path d="M2360 811 c0 -5 5 -13 10 -16 6 -3 10 -2 10 4 0 5 -4 13 -10 16 -5 3
-10 2 -10 -4z"/>
<path d="M405 420 c-3 -5 -1 -10 4 -10 6 0 11 5 11 10 0 6 -2 10 -4 10 -3 0
-8 -4 -11 -10z"/>
<path d="M579 291 c-14 -5 -14 -11 -3 -41 10 -27 13 -30 13 -12 1 12 6 22 11
22 12 0 14 27 3 33 -5 3 -15 2 -24 -2z"/>
<path d="M371 146 c1 -40 -1 -77 -4 -82 -3 -5 -3 -21 0 -37 5 -25 9 -27 49
-27 24 0 44 1 44 3 0 1 -9 26 -19 56 -11 29 -25 77 -31 107 -8 36 -16 54 -26
54 -12 0 -15 -14 -13 -74z"/>
</g>
</svg>
