<svg
  viewBox="0 0 300 96"
  version="1.1"
  xmlns="http://www.w3.org/2000/svg"
  xmlns:xlink="http://www.w3.org/1999/xlink"
  xmlns:sketch="http://www.bohemiancoding.com/sketch/ns"
>
  <g
    stroke="none"
    stroke-width="1"
    fill="none"
    fill-rule="evenodd"
    sketch:type="MSPage"
  >
    <g sketch:type="MSLayerGroup" fill="#FFBC02">
      <g sketch:type="MSShapeGroup">
        <path
          d="M15.9855588,58.7359523 C16.3462987,52.2458124 20.3126992,47.19696 27.0433236,47.19696 C34.7353415,47.19696 37.9802622,52.3657749 37.9802622,58.9767464 L37.9802622,93.4720221 L53.965821,93.4720221 L53.965821,56.2115261 C53.965821,43.2312464 46.9944136,32.7736544 31.9711176,32.7736544 C26.3218437,32.7736544 19.8320024,34.69653 15.9855588,39.2646635 L15.9855588,0.735 L0,11.079584 L0,93.4720221 L15.9855588,93.4720221 L15.9855588,58.7359523 L15.9855588,58.7359523 Z M107.969889,63.9038978 C107.969889,75.0821335 100.758568,80.7316673 92.9465931,80.7316673 C85.133749,80.7316673 77.9224279,74.9621711 77.9224279,63.9038978 C77.9224279,52.7265314 85.133749,47.0769976 92.9465931,47.0769976 C100.758568,47.0769976 107.969889,52.7265314 107.969889,63.9038978 L107.969889,63.9038978 L107.969889,63.9038978 Z M123.955448,63.9038978 C123.955448,45.6348409 110.614156,32.5337296 92.9465931,32.5337296 C75.2781609,32.5337296 61.9377383,45.6348409 61.9377383,63.9038978 C61.9377383,82.0538616 75.2781609,95.2749353 92.9465931,95.2749353 C110.614156,95.2749353 123.955448,82.0538616 123.955448,63.9038978 L123.955448,63.9038978 L123.955448,63.9038978 Z M147.828607,59.4574653 C147.828607,52.6056997 151.914964,47.19696 158.885502,47.19696 C166.578389,47.19696 169.82331,52.3657749 169.82331,58.9767464 L169.82331,93.4720221 L185.807999,93.4720221 L185.807999,56.2115261 C185.807999,43.2312464 179.077375,32.7736544 164.414819,32.7736544 C158.044935,32.7736544 150.95357,35.5380054 147.34791,41.668258 L147.34791,34.3366428 L131.843048,34.3366428 L131.843048,93.4720221 L147.828607,93.4720221 L147.828607,59.4574653 L147.828607,59.4574653 Z M240.070236,63.9038978 C240.070236,75.0821335 232.858914,80.7316673 225.04694,80.7316673 C217.234096,80.7316673 210.022774,74.9621711 210.022774,63.9038978 C210.022774,52.7265314 217.234096,47.0769976 225.04694,47.0769976 C232.858914,47.0769976 240.070236,52.7265314 240.070236,63.9038978 L240.070236,63.9038978 L240.070236,63.9038978 Z M256.055794,63.9038978 C256.055794,45.6348409 242.714503,32.5337296 225.04694,32.5337296 C207.378507,32.5337296 194.038085,45.6348409 194.038085,63.9038978 C194.038085,82.0538616 207.378507,95.2749353 225.04694,95.2749353 C242.714503,95.2749353 256.055794,82.0538616 256.055794,63.9038978 L256.055794,63.9038978 L256.055794,63.9038978 Z M300,34.0958487 C298.798693,33.9758863 297.596516,33.8559239 296.274383,33.8559239 C291.226632,33.8559239 283.053917,35.2980806 279.448256,43.1104147 L279.448256,34.3366428 L263.943394,34.3366428 L263.943394,93.4720221 L279.928953,93.4720221 L279.928953,66.428324 C279.928953,53.6879692 287.020317,49.7213862 295.193032,49.7213862 C296.635122,49.7213862 298.19717,49.8413486 300,50.2021051 L300,34.0958487 L300,34.0958487 Z"
        ></path>
      </g>
    </g>
  </g>
</svg>
